<?xml version="1.0" standalone="no"?>
<!DOCTYPE svg PUBLIC "-//W3C//DTD SVG 1.1//EN" "http://www.w3.org/Graphics/SVG/1.1/DTD/svg11.dtd" >
<svg xmlns="http://www.w3.org/2000/svg" xmlns:xlink="http://www.w3.org/1999/xlink" version="1.1">
<metadata></metadata>
<defs>
<font id="tondoregular" horiz-adv-x="1160" >
<font-face units-per-em="2048" ascent="1638" descent="-410" />
<missing-glyph horiz-adv-x="508" />
<glyph horiz-adv-x="0" />
<glyph unicode="&#xd;" horiz-adv-x="508" />
<glyph unicode=" "  horiz-adv-x="508" />
<glyph unicode="&#x09;" horiz-adv-x="508" />
<glyph unicode="&#xa0;" horiz-adv-x="508" />
<glyph unicode="!" horiz-adv-x="520" d="M100 128v52q0 90 128 140h52q90 0 140 -128v-52q0 -90 -128 -140h-52q-90 0 -140 128zM100 528v692q0 90 128 140h52q90 0 140 -128v-692q0 -90 -128 -140h-52q-90 0 -140 128z" />
<glyph unicode="&#x22;" horiz-adv-x="920" d="M100 928v292q0 90 128 140h52q90 0 140 -128l4 -84v-136q0 -163 -96 -196q0 -9 -48 -16h-40q-90 0 -140 128zM496 1012v136q0 163 96 196q0 9 48 16h40q90 0 140 -128v-292q0 -90 -128 -140h-52q-90 0 -140 128z" />
<glyph unicode="#" d="M100 232v28q0 56 76 120v200q-76 59 -76 132v16q0 84 96 144q52 88 136 88h16q73 0 136 -80h192q63 80 136 80h16q84 0 144 -96q88 -52 88 -136v-16q0 -73 -80 -136v-192q80 -67 80 -124v-28q0 -84 -96 -144q-52 -88 -136 -88h-16q-73 0 -132 76h-200q-59 -76 -132 -76 h-16q-84 0 -144 96q-88 52 -88 136zM500 400h156v156h-156v-156z" />
<glyph unicode="$" horiz-adv-x="1040" d="M100 210v40q25 96 52 96q43 52 104 52h20q24 0 188 -80l32 -4h12q73 0 108 100v32q0 107 -260 152q-256 91 -256 332v40q0 205 220 340q16 0 16 8q0 144 116 188l28 4h40q90 0 140 -128v-40q208 -40 208 -180v-12q0 -105 -136 -164l-36 -8q-26 0 -176 48l-20 4 q-76 -14 -76 -72v-16q0 -58 268 -140q248 -109 248 -348v-44q0 -200 -196 -348l-84 -48v-44q0 -90 -128 -140h-52q-51 3 -100 52q-44 48 -44 132q-236 80 -236 196z" />
<glyph unicode="%" d="M100 128v52q0 90 128 140h52q90 0 140 -128v-52q0 -90 -128 -140h-52q-90 0 -140 128zM100 792v28q0 88 124 140h44q84 0 212 -152q566 -556 568 -580l12 -52v-32q0 -84 -108 -136l-36 -8h-32q-72 0 -196 144q-568 559 -568 576q-20 35 -20 72zM740 768v52q0 90 128 140 h52q90 0 140 -128v-52q0 -90 -128 -140h-52q-90 0 -140 128z" />
<glyph unicode="&#x26;" horiz-adv-x="1705" />
<glyph unicode="'" horiz-adv-x="524" d="M100 928v292q0 90 128 140h52q90 0 140 -128l4 -84v-136q0 -163 -96 -196q0 -9 -48 -16h-40q-90 0 -140 128z" />
<glyph unicode="(" horiz-adv-x="648" />
<glyph unicode=")" horiz-adv-x="648" />
<glyph unicode="*" d="M100 472v16q0 96 108 144q-16 47 -16 72v4q0 122 144 160h20q25 0 72 -16v4q52 104 144 104h16q96 0 144 -108q47 16 72 16h4q128 0 160 -152v-12q0 -25 -16 -72h4q104 -52 104 -144v-16q0 -96 -108 -144q16 -47 16 -72v-4q0 -128 -152 -160h-12q-25 0 -72 16v-4 q-52 -104 -144 -104h-16q-96 0 -144 108q-47 -16 -72 -16h-4q-122 0 -160 144v20q0 25 16 72h-4q-104 52 -104 144z" />
<glyph unicode="+" d="M100 460v40q0 90 128 140h188v108q0 163 96 196q0 9 48 16h40q90 0 140 -128v-192h180q90 0 140 -128v-52q0 -90 -128 -140l-84 -4h-108v-176q0 -90 -128 -140h-52q-90 0 -140 128l-4 84v104h-104q-163 0 -196 96q-9 0 -16 48z" />
<glyph unicode="," horiz-adv-x="576" d="M100 128v32q55 420 96 420q0 26 96 56h32q106 0 152 -128v-32q-55 -420 -96 -420q0 -26 -96 -56h-32q-106 0 -152 128z" />
<glyph unicode="-" d="M100 448v52q0 90 128 140h692q90 0 140 -128v-52q0 -90 -128 -140h-692q-90 0 -140 128z" />
<glyph unicode="." horiz-adv-x="520" d="M100 128v52q0 90 128 140h52q90 0 140 -128v-52q0 -90 -128 -140h-52q-90 0 -140 128z" />
<glyph unicode="/" d="M100 124v56q0 68 156 204q549 560 572 560q32 16 52 16h40q88 0 140 -124v-56q0 -68 -156 -204q-549 -560 -572 -560q-31 -16 -52 -16h-40q-88 0 -140 124z" />
<glyph unicode="0" horiz-adv-x="1560" d="M100 648v64q0 264 244 492q205 156 404 156h64q264 0 492 -244q156 -205 156 -404v-64q0 -264 -244 -492q-205 -156 -404 -156h-64q-264 0 -492 244q-156 205 -156 404zM424 664q0 -203 220 -316q66 -24 120 -24h32q203 0 316 220q24 66 24 120v32q0 203 -220 316 q-66 24 -120 24h-32q-203 0 -316 -220q-24 -66 -24 -120v-32z" />
<glyph unicode="1" horiz-adv-x="520" d="M100 128v1092q0 90 128 140h52q90 0 140 -128v-1092q0 -90 -128 -140h-52q-90 0 -140 128z" />
<glyph unicode="2" d="M100 128v48q0 75 180 216q403 365 436 408q20 37 20 60v40q0 89 -124 136h-52q-72 0 -124 -92q-12 -22 -20 -112q-56 -112 -136 -112h-40q-90 0 -140 128v56q0 222 224 384q122 72 232 72h48q222 0 384 -224q72 -122 72 -232v-56q0 -213 -288 -440l-88 -84h168 q155 0 192 -96q16 -28 16 -72q0 -108 -128 -156h-692q-90 0 -140 128z" />
<glyph unicode="3" d="M100 456v44q0 90 128 140h52q77 0 132 -104q16 -122 36 -140q50 -72 112 -72h40q89 0 136 124v52q-3 51 -52 100q-39 44 -216 44q-124 52 -124 140v40q0 68 156 204l4 4v4h-112q-163 0 -196 96q-9 0 -16 48v40q0 90 128 140h612q88 0 140 -124v-56q0 -69 -176 -224 l-60 -64q236 -130 236 -380v-56q0 -175 -204 -360q-140 -96 -248 -96h-52q-222 0 -384 224q-72 122 -72 232z" />
<glyph unicode="4" horiz-adv-x="1155" />
<glyph unicode="5" d="M100 456v44q0 73 96 128l28 8v8q-53 0 -108 84q-16 32 -16 52v440q0 90 128 140h612q90 0 140 -128v-52q0 -90 -128 -140l-84 -4h-348v-76h184q222 0 384 -224q72 -122 72 -232v-48q0 -222 -224 -384q-122 -72 -232 -72h-48q-222 0 -384 224q-72 122 -72 232zM308 632 q54 0 108 -104q0 -162 120 -200l24 -4h40q89 0 136 124v52q0 89 -124 136h-304v-4z" />
<glyph unicode="6" d="M100 456v44q0 133 160 416q187 397 212 404q50 40 88 40h40q90 0 140 -128v-52q0 -25 -100 -224q134 0 288 -144q132 -146 132 -312v-44q0 -222 -224 -384q-122 -72 -232 -72h-48q-222 0 -384 224q-72 122 -72 232zM424 460q0 -88 124 -136h52q89 0 136 124v52 q0 89 -124 136h-52q-90 0 -136 -124v-52z" />
<glyph unicode="7" d="M100 148v44q0 25 84 152l424 692h-296q-163 0 -196 96q-9 0 -16 48v40q0 90 128 140h688q75 0 140 -124l4 -20v-48q0 -28 -120 -208l-564 -916q-46 -43 -88 -44h-36q-77 0 -148 132z" />
<glyph unicode="8" d="M100 456v48q0 175 156 332v4q-36 69 -36 144v32q0 205 224 320q63 24 120 24h32q204 0 320 -224q24 -63 24 -120v-32q0 -64 -36 -152q156 -149 156 -328v-48q0 -214 -216 -380q-129 -76 -240 -76h-48q-214 0 -380 216q-76 129 -76 240zM424 460q0 -88 124 -136h52 q89 0 136 124v52q0 89 -124 136h-52q-88 0 -136 -124v-52zM544 996q0 -32 32 -32h8q32 0 32 32v8q0 32 -32 32h-8q-32 0 -32 -32v-8z" />
<glyph unicode="9" d="M100 860v44q0 222 224 384q122 72 232 72h48q222 0 384 -224q72 -122 72 -232v-44q0 -126 -144 -388l-208 -412q-59 -60 -108 -60h-40q-90 0 -140 128v44q0 40 72 172l28 60q-134 0 -288 144q-132 146 -132 312zM424 860q0 -88 124 -136h52q90 0 136 124v52 q0 89 -124 136h-52q-88 0 -136 -124v-52z" />
<glyph unicode=":" horiz-adv-x="520" d="M100 128v52q0 90 128 140h52q90 0 140 -128v-52q0 -90 -128 -140h-52q-90 0 -140 128zM100 768v52q0 90 128 140h52q90 0 140 -128v-52q0 -90 -128 -140h-52q-90 0 -140 128z" />
<glyph unicode=";" horiz-adv-x="576" d="M100 -160q56 412 88 412q50 64 120 64h24q98 0 144 -132v-28q-55 -420 -96 -420q0 -26 -96 -56h-32q-106 0 -152 128v32zM152 796q0 63 60 124q50 36 84 36h40q90 0 140 -128v-52q0 -68 -88 -124q-31 -16 -72 -20q-116 0 -160 136z" />
<glyph unicode="&#x3c;" horiz-adv-x="840" d="M100 460v28q0 83 132 192q257 270 292 272q16 8 44 8h32q77 0 132 -104l8 -48v-24q0 -69 -144 -192l-104 -112q240 -234 240 -268q8 -16 8 -44v-28q0 -89 -124 -140h-56q-69 0 -224 176l-212 212q-24 54 -24 72z" />
<glyph unicode="=" d="M100 128v52q0 90 128 140h692q90 0 140 -128v-52q0 -90 -128 -140h-692q-90 0 -140 128zM100 620v40q0 90 128 140h692q90 0 140 -128v-52q0 -90 -128 -140l-84 -4h-536q-163 0 -196 96q-9 0 -16 48z" />
<glyph unicode="&#x3e;" horiz-adv-x="840" d="M100 152v24q0 69 144 192l104 112q-240 234 -240 268q-8 16 -8 44v28q0 89 124 140h56q69 0 224 -176q216 -215 216 -224q20 -37 20 -60v-28q0 -83 -132 -192q-257 -270 -292 -272q-16 -8 -44 -8h-32q-77 0 -132 104z" />
<glyph unicode="?" d="M100 848v56q0 214 216 380q129 76 240 76h48q214 0 380 -216q76 -129 76 -240v-48q0 -214 -216 -380q-129 -76 -240 -76h-44q-90 0 -140 128v52q0 77 104 132q122 16 140 36q72 50 72 112v40q0 89 -124 136h-52q-72 0 -124 -92q-12 -22 -20 -112q-56 -112 -136 -112h-40 q-90 0 -140 128zM420 128v52q0 90 128 140h52q90 0 140 -128v-52q0 -90 -128 -140h-52q-90 0 -140 128z" />
<glyph unicode="@" horiz-adv-x="1960" d="M100 444v72q0 326 284 616q276 228 560 228h72q326 0 616 -284q228 -276 228 -560v-172q0 -204 -224 -320q-66 -24 -120 -24h-32q-113 0 -224 88q-132 -88 -256 -88h-48q-214 0 -380 216q-76 129 -76 240v48q0 214 216 380q129 76 240 76h48q214 0 380 -216 q76 -129 76 -240v-120q0 -60 36 -60h8q32 0 32 32v148q0 259 -256 448q-147 84 -276 84h-48q-259 0 -448 -256q-84 -147 -84 -276v-48q0 -259 256 -448q144 -88 336 -88q124 -53 124 -140v-40q0 -90 -128 -140h-60q-372 0 -668 336q-184 259 -184 508zM824 460 q0 -88 124 -136h52q89 0 136 124v52q0 89 -124 136h-52q-88 0 -136 -124v-52z" />
<glyph unicode="A" horiz-adv-x="1556" d="M100 144v36q0 31 192 416q250 531 356 708q48 51 100 56h32q116 0 188 -196q460 -899 488 -968v-48q0 -56 -108 -136l-44 -12h-24q-102 0 -164 156l-44 84h-596q-93 -220 -136 -220q-18 -20 -64 -20h-32q-74 0 -136 108zM640 564h264l-132 268q-33 -49 -132 -268z" />
<glyph unicode="B" horiz-adv-x="1180" d="M100 128v1084q0 73 124 140l32 8h416q247 0 380 -264q28 -85 28 -156q0 -134 -88 -256v-8q88 -105 88 -240v-28q0 -242 -260 -376q-72 -32 -244 -32h-336q-90 0 -140 128zM420 324h252q88 31 88 92v16q-20 84 -84 84h-256v-192zM424 840h216q120 18 120 112 q-24 84 -84 84h-252v-196z" />
<glyph unicode="C" horiz-adv-x="1408" d="M100 648v64q0 264 244 492q206 156 404 156h68q191 0 400 -156q92 -77 92 -136v-32q0 -111 -136 -148l-24 -4q-70 0 -156 84q-95 68 -196 68h-32q-185 0 -300 -188q-40 -76 -40 -160v-16q0 -239 264 -340l76 -8h32q138 0 272 132q57 20 80 20q119 0 160 -136v-48 q0 -110 -272 -244q-136 -48 -220 -48h-68q-263 0 -492 244q-156 205 -156 404z" />
<glyph unicode="D" horiz-adv-x="1320" d="M100 128v1092q0 90 128 140h344q264 0 492 -244q156 -205 156 -404v-64q0 -264 -244 -492q-205 -156 -404 -156h-332q-90 0 -140 128zM420 320q247 0 300 52q176 114 176 292v32q0 207 -228 320q-63 24 -204 24h-40v-380z" />
<glyph unicode="E" d="M100 128v1092q0 90 128 140h692q90 0 140 -128v-52q0 -90 -128 -140l-344 -4h-164v-196h416q90 0 140 -128v-52q0 -90 -128 -140l-84 -4h-344v-196l400 4h24q163 0 196 -96q9 0 16 -48v-40q0 -90 -128 -140h-692q-90 0 -140 128z" />
<glyph unicode="F" d="M100 128v1092q0 90 128 140h692q90 0 140 -128v-52q0 -90 -128 -140h-512l4 -260v-60h416q90 0 140 -128v-52q0 -62 -80 -120q-34 -24 -124 -24h-352v-184q0 -163 -96 -196q0 -9 -48 -16h-40q-90 0 -140 128z" />
<glyph unicode="G" horiz-adv-x="1408" d="M100 648v64q0 264 244 492q205 156 404 156h68q166 0 364 -128q128 -90 128 -176v-28q0 -38 -48 -100q-62 -44 -112 -44q-70 0 -156 84q-95 68 -196 68h-32q-203 0 -316 -220q-24 -66 -24 -120v-32q0 -203 220 -316q66 -24 120 -24h32q102 0 188 64v84h-256 q-90 0 -140 128v52q0 62 80 120q35 24 124 24h312q161 0 200 -116l4 -28v-360q0 -110 -272 -244q-139 -48 -220 -48h-68q-264 0 -492 244q-156 205 -156 404z" />
<glyph unicode="H" horiz-adv-x="1320" d="M100 128v1092q0 90 128 140h52q90 0 140 -128l4 -84v-304h476v376q0 90 128 140h52q90 0 140 -128v-1092q0 -90 -128 -140h-52q-90 0 -140 128l-4 84v308h-476v-380q0 -90 -128 -140h-52q-90 0 -140 128z" />
<glyph unicode="I" horiz-adv-x="520" d="M100 128v1092q0 90 128 140h52q90 0 140 -128v-1092q0 -90 -128 -140h-52q-90 0 -140 128z" />
<glyph unicode="J" horiz-adv-x="920" d="M100 128v52q0 77 104 132l152 28q140 81 140 200v608q0 163 96 196q0 9 48 16h40q90 0 140 -128v-696q0 -261 -260 -452q-147 -84 -276 -84h-44q-90 0 -140 128z" />
<glyph unicode="K" horiz-adv-x="1360" d="M100 128v1092q0 90 128 140h52q90 0 140 -128l4 -84v-420h4q0 44 184 212q400 411 428 412l52 8h16q106 0 152 -128v-52q0 -68 -164 -212l-284 -288q428 -428 428 -440q20 -37 20 -60v-40q0 -90 -128 -140h-52q-69 0 -224 176q-424 414 -424 436l-4 16h-4v-4l-4 -436v-48 q0 -90 -128 -140h-52q-90 0 -140 128z" />
<glyph unicode="L" d="M100 128v1092q0 90 128 140h52q77 0 132 -104l12 -72l-4 -860v-4h500q90 0 140 -128v-52q0 -90 -128 -140h-692q-90 0 -140 128z" />
<glyph unicode="M" horiz-adv-x="1560" d="M100 128v1092q0 88 124 140h56q69 0 224 -176l276 -272q427 428 440 428q37 20 60 20h40q89 0 140 -124v-1096q0 -90 -128 -140h-52q-62 0 -120 80q-24 35 -24 124v600q-273 -276 -296 -276l-48 -8h-24q-79 0 -204 148l-140 136v-8l-4 -668q-50 -128 -140 -128h-40 q-90 0 -140 128z" />
<glyph unicode="N" horiz-adv-x="1560" d="M100 128v1092q0 88 124 140h56q69 0 216 -168l640 -636v600q0 161 116 200l28 4h40q90 0 140 -128v-1092q0 -88 -124 -140h-56q-69 0 -216 168l-640 636v-580q0 -148 -60 -188q-50 -36 -84 -36h-40q-90 0 -140 128z" />
<glyph unicode="O" horiz-adv-x="1560" d="M100 648v64q0 264 244 492q205 156 404 156h64q264 0 492 -244q156 -205 156 -404v-64q0 -264 -244 -492q-205 -156 -404 -156h-64q-264 0 -492 244q-156 205 -156 404zM424 664q0 -203 220 -316q66 -24 120 -24h32q203 0 316 220q24 66 24 120v32q0 203 -220 316 q-66 24 -120 24h-32q-203 0 -316 -220q-24 -66 -24 -120v-32z" />
<glyph unicode="P" d="M100 128v1092q0 90 128 140h376q212 0 380 -216q76 -132 76 -240v-48q0 -212 -216 -380q-133 -76 -240 -76h-180v-168q0 -162 -56 -188q0 -22 -88 -44h-40q-90 0 -140 128zM424 724h176q88 0 136 124v52q0 88 -124 136l-84 4h-104v-316z" />
<glyph unicode="Q" horiz-adv-x="1560" d="M100 648v64q0 264 244 492q205 156 404 156h64q264 0 492 -244q156 -205 156 -404v-48q0 -166 -96 -340q96 -79 96 -156v-16q0 -106 -128 -152h-40q-73 0 -160 96q-165 -96 -336 -96h-48q-264 0 -492 244q-156 205 -156 404zM424 664q0 -203 220 -316q66 -24 120 -24h32 q90 4 92 20q-144 125 -144 192v40q35 140 152 140h16q83 0 200 -140l4 -4h4q16 37 16 92v32q0 203 -220 316q-66 24 -120 24h-32q-203 0 -316 -220q-24 -66 -24 -120v-32z" />
<glyph unicode="R" d="M100 128v1092q0 90 128 140h376q212 0 380 -216q76 -132 76 -240v-48q0 -224 -236 -392q228 -214 228 -252q8 -16 8 -44v-16q0 -106 -128 -152h-40q-83 0 -200 140l-264 260h-4v-168q0 -162 -56 -188q0 -22 -88 -44h-40q-90 0 -140 128zM424 724h176q88 0 136 124v52 q0 88 -124 136l-84 4h-104v-316z" />
<glyph unicode="S" horiz-adv-x="1040" d="M100 220v40q0 91 136 148h40q25 0 196 -84h36q73 0 108 100v32q0 107 -260 152q-256 91 -256 332v32q0 220 228 352q83 36 160 36h68q226 0 296 -120q16 -40 16 -68v-12q0 -105 -136 -164l-40 -8q-22 0 -172 48h-28q-68 -12 -68 -68v-16q0 -58 256 -136 q260 -107 260 -352v-40q0 -245 -260 -388q-86 -36 -164 -36h-36q-168 0 -324 116q-52 51 -56 104z" />
<glyph unicode="T" horiz-adv-x="1320" d="M100 1180v40q0 90 128 140h852q90 0 140 -128v-52q0 -90 -128 -140l-84 -4h-184v-784q0 -179 -44 -196q0 -26 -96 -56h-44q-90 0 -140 128l-4 28l4 28v852h-188q-163 0 -196 96q-9 0 -16 48z" />
<glyph unicode="U" horiz-adv-x="1320" d="M100 536v684q0 90 128 140h52q90 0 140 -128v-608q0 -206 108 -260q55 -40 112 -40h40q127 0 200 148q16 33 16 68v608q0 163 96 196q0 9 48 16h40q90 0 140 -128v-696q0 -261 -260 -452q-147 -84 -276 -84h-48q-261 0 -452 260q-84 147 -84 276z" />
<glyph unicode="V" horiz-adv-x="1556" d="M100 1180v36q0 79 112 136l32 8h32q106 0 164 -164l332 -668q143 299 392 768q48 64 116 64h24q78 0 148 -132l4 -16v-48l-548 -1092q-57 -72 -128 -72h-28q-95 0 -164 164q-180 346 -484 992z" />
<glyph unicode="W" horiz-adv-x="2596" d="M100 1180v36q0 79 112 136l32 8h32q106 0 164 -164l332 -668q128 268 388 760q49 72 120 72h36q105 0 164 -164l332 -668q236 484 396 772q45 60 112 60h24q78 0 148 -132l4 -16v-48l-548 -1092q-57 -72 -128 -72h-28q-102 0 -192 216q-88 168 -304 620h-4l-392 -776 q-57 -60 -120 -60h-28q-95 0 -164 164q-175 337 -484 992z" />
<glyph unicode="X" horiz-adv-x="1560" d="M100 124v56q0 68 164 212l284 288q-428 428 -428 440q-20 37 -20 60v40q0 90 128 140h52q68 0 212 -164l288 -284q428 428 440 428q37 20 60 20h40q90 0 140 -128v-52q0 -68 -164 -212l-284 -288q428 -428 428 -440q20 -37 20 -60v-40q0 -91 -128 -140h-52 q-69 0 -224 176l-276 272q-428 -428 -440 -428q-37 -20 -60 -20h-40q-87 0 -140 124z" />
<glyph unicode="Y" horiz-adv-x="1560" d="M100 1180v40q0 90 128 140h52q68 0 212 -164l288 -284q428 428 440 428q37 20 60 20h40q90 0 140 -128v-52q0 -67 -148 -196l-372 -376v-468q0 -90 -128 -140h-52q-62 0 -120 80q-24 35 -24 124v408q-496 496 -496 508q-20 37 -20 60z" />
<glyph unicode="Z" horiz-adv-x="1560" d="M100 124v48q0 80 160 216l644 648l-420 4h-244q-90 0 -140 128v52q0 90 128 140h1092q89 0 140 -124v-56q0 -69 -180 -228l-624 -628l380 -4h284q90 0 140 -128v-52q0 -90 -128 -140h-1092q-88 0 -140 124z" />
<glyph unicode="[" horiz-adv-x="840" d="M100 128v1092q0 90 128 140h372q90 0 140 -128v-52q0 -90 -128 -140l-84 -4h-108v-716h180q90 0 140 -128v-52q0 -90 -128 -140h-372q-90 0 -140 128z" />
<glyph unicode="\" d="M100 780v40q0 88 124 140h56q68 0 204 -156q560 -549 560 -572q16 -31 16 -52v-40q0 -88 -124 -140h-56q-68 0 -204 156q-560 549 -560 572q-16 32 -16 52z" />
<glyph unicode="]" horiz-adv-x="840" d="M100 128v52q0 90 128 140h188v716h-104q-163 0 -196 96q-9 0 -16 48v40q0 90 128 140h372q90 0 140 -128v-1092q0 -90 -128 -140h-372q-90 0 -140 128z" />
<glyph unicode="^" horiz-adv-x="1014" />
<glyph unicode="_" d="M100 128v52q0 90 128 140h692q90 0 140 -128v-52q0 -90 -128 -140h-692q-90 0 -140 128z" />
<glyph unicode="`" horiz-adv-x="661" d="M100 1363q0 31 20.5 51t53.5 20q20 0 40.5 -12t55.5 -47l291 -296h-69l-330 202q-31 20 -46.5 40t-15.5 42z" />
<glyph unicode="a" d="M100 456v48q0 214 216 380q129 76 240 76h48q214 0 380 -216q76 -129 76 -240v-364q0 -90 -128 -140h-52q-35 0 -96 44q-92 -44 -184 -44h-44q-214 0 -380 216q-76 129 -76 240zM424 460q0 -88 124 -136h52q89 0 136 124v52q0 89 -124 136h-52q-88 0 -136 -124v-52z" />
<glyph unicode="b" d="M100 456v764q0 90 128 140h52q62 0 120 -80q24 -34 24 -124v-220q69 24 136 24h44q214 0 380 -216q76 -129 76 -240v-48q0 -214 -216 -380q-129 -76 -240 -76h-48q-214 0 -380 216q-76 129 -76 240zM424 460q0 -88 124 -136h52q89 0 136 124v52q0 89 -124 136h-52 q-88 0 -136 -124v-52z" />
<glyph unicode="c" horiz-adv-x="840" d="M100 456v48q0 214 216 380q129 76 240 76h44q90 0 140 -128v-52q0 -77 -104 -132q-122 -16 -140 -36q-72 -50 -72 -112v-40q0 -72 92 -124q22 -12 112 -20q112 -56 112 -136v-40q0 -90 -128 -140h-56q-214 0 -380 216q-76 129 -76 240z" />
<glyph unicode="d" d="M100 456v48q0 214 216 380q129 76 240 76h44q67 0 136 -24v4l4 292q50 128 140 128h40q90 0 140 -128v-776q0 -214 -216 -380q-129 -76 -240 -76h-48q-214 0 -380 216q-76 129 -76 240zM424 460q0 -88 124 -136h52q89 0 136 124v52q0 89 -124 136h-52q-88 0 -136 -124 v-52z" />
<glyph unicode="e" d="M100 456v48q0 214 216 380q129 76 240 76h40q163 0 344 -156q116 -122 116 -224v-28q0 -80 -136 -192l-36 -40h36q90 0 140 -128v-52q0 -90 -128 -140h-376q-214 0 -380 216q-76 129 -76 240zM424 460q0 -35 44 -96l228 228q-60 44 -96 44h-40q-88 0 -136 -124v-52z" />
<glyph unicode="f" horiz-adv-x="840" d="M100 128v776q0 214 216 380q129 76 240 76h44q90 0 140 -128v-52q0 -77 -104 -132q-122 -16 -140 -36q-72 -50 -72 -112l-4 -260h180q90 0 140 -128v-52q0 -90 -128 -140l-84 -4h-108v-176q0 -90 -128 -140h-52q-90 0 -140 128z" />
<glyph unicode="g" d="M100 456v48q0 214 216 380q129 76 240 76h48q214 0 380 -216q76 -129 76 -240v-448q0 -214 -216 -380q-129 -76 -240 -76h-44q-90 0 -140 128v52q0 62 80 120q32 19 140 32q84 53 84 88h-4q-52 -20 -120 -20h-44q-214 0 -380 216q-76 129 -76 240zM424 460 q0 -88 124 -136h52q89 0 136 124v52q0 89 -124 136h-52q-88 0 -136 -124v-52z" />
<glyph unicode="h" d="M100 128v1092q0 90 128 140h52q62 0 120 -80q24 -34 24 -124v-220q69 24 136 24h44q214 0 380 -216q76 -129 76 -240v-364q0 -90 -128 -140h-52q-90 0 -140 128l-4 84v288q0 89 -124 136h-52q-88 0 -136 -124l-4 -84v-288q0 -90 -128 -140h-52q-90 0 -140 128z" />
<glyph unicode="i" horiz-adv-x="520" d="M100 128v692q0 90 128 140h52q90 0 140 -128v-692q0 -90 -128 -140h-52q-90 0 -140 128zM100 1168v52q0 90 128 140h52q90 0 140 -128v-52q0 -90 -128 -140h-52q-90 0 -140 128z" />
<glyph unicode="j" horiz-adv-x="840" d="M100 -220q0 77 104 132q122 16 140 36q72 50 72 112v688q0 163 96 196q0 9 48 16h40q90 0 140 -128v-776q0 -214 -216 -380q-129 -76 -240 -76h-44q-90 0 -140 128v52zM420 1168v52q0 90 128 140h52q90 0 140 -128v-52q0 -90 -128 -140h-52q-90 0 -140 128z" />
<glyph unicode="k" d="M100 128v1092q0 90 128 140h52q62 0 120 -80q24 -34 24 -124v-628h4q0 39 188 212q191 220 260 220h44q77 0 132 -104l8 -48v-24q0 -69 -144 -192l-104 -112q240 -234 240 -268q8 -16 8 -44v-28q0 -89 -124 -140h-56q-68 0 -200 156q-248 240 -248 256l-4 20h-4v-200 q0 -162 -56 -188q0 -22 -88 -44h-40q-90 0 -140 128z" />
<glyph unicode="l" horiz-adv-x="520" d="M100 128v1092q0 90 128 140h52q90 0 140 -128v-1092q0 -90 -128 -140h-52q-90 0 -140 128z" />
<glyph unicode="m" horiz-adv-x="1800" d="M100 128v376q0 214 216 380q129 76 240 76h44q154 0 300 -120q145 120 300 120h44q214 0 380 -216q76 -129 76 -240v-364q0 -90 -128 -140h-52q-90 0 -140 128l-4 84v288q0 89 -124 136h-52q-88 0 -136 -124l-4 -84v-288q0 -90 -128 -140h-52q-90 0 -140 128l-4 84v288 q0 89 -124 136h-52q-88 0 -136 -124l-4 -84v-288q0 -90 -128 -140h-52q-90 0 -140 128z" />
<glyph unicode="n" d="M100 128v376q0 214 216 380q129 76 240 76h48q214 0 380 -216q76 -129 76 -240v-364q0 -90 -128 -140h-52q-90 0 -140 128l-4 84v288q0 89 -124 136h-52q-88 0 -136 -124l-4 -84v-288q0 -90 -128 -140h-52q-90 0 -140 128z" />
<glyph unicode="o" d="M100 456v48q0 214 216 380q129 76 240 76h48q214 0 380 -216q76 -129 76 -240v-48q0 -214 -216 -380q-129 -76 -240 -76h-48q-214 0 -380 216q-76 129 -76 240zM424 460q0 -88 124 -136h52q89 0 136 124v52q0 89 -124 136h-52q-88 0 -136 -124v-52z" />
<glyph unicode="p" d="M100 -272v776q0 214 216 380q129 76 240 76h48q214 0 380 -216q76 -129 76 -240v-48q0 -214 -216 -380q-129 -76 -240 -76h-44q-63 0 -140 24v-284q0 -90 -128 -140h-52q-90 0 -140 128zM424 460q0 -88 124 -136h52q89 0 136 124v52q0 89 -124 136h-52q-88 0 -136 -124 v-52z" />
<glyph unicode="q" d="M100 456v48q0 214 216 380q129 76 240 76h48q214 0 380 -216q76 -129 76 -240v-764q0 -90 -128 -140h-52q-90 0 -140 128l-4 84v212q-69 -24 -136 -24h-44q-214 0 -380 216q-76 129 -76 240zM424 460q0 -88 124 -136h52q89 0 136 124v52q0 89 -124 136h-52 q-88 0 -136 -124v-52z" />
<glyph unicode="r" horiz-adv-x="840" d="M100 128v376q0 214 216 380q129 76 240 76h44q90 0 140 -128v-52q0 -90 -128 -140q-144 0 -184 -112l-8 -100v-288q0 -90 -128 -140h-52q-90 0 -140 128z" />
<glyph unicode="s" horiz-adv-x="1292" d="M100 444v56q0 70 200 248q187 212 388 212h48q214 0 380 -216q76 -129 76 -240v-48q0 -214 -216 -380q-129 -76 -240 -76h-364q-90 0 -140 128v52q0 90 128 140h300q171 0 200 108l8 32v40q0 89 -124 136h-52q-62 0 -172 -128q-179 -184 -216 -184l-24 -4h-40 q-88 0 -140 124z" />
<glyph unicode="t" horiz-adv-x="840" d="M100 456v764q0 90 128 140h52q62 0 120 -80q24 -34 24 -124v-188l-4 -4v-4h180q90 0 140 -128v-52q0 -90 -128 -140l-84 -4h-108v-104q0 -171 108 -200l112 -20q100 -60 100 -132v-40q0 -90 -128 -140h-56q-214 0 -380 216q-76 129 -76 240z" />
<glyph unicode="u" d="M100 456v364q0 90 128 140h52q90 0 140 -128v-300q0 -171 108 -200l32 -8h40q89 0 136 124v300q0 163 96 196q0 9 48 16h40q90 0 140 -128v-376q0 -214 -216 -380q-129 -76 -240 -76h-48q-214 0 -380 216q-76 129 -76 240z" />
<glyph unicode="v" d="M100 768v52q0 90 128 140h40q119 0 196 -212l116 -220q190 412 244 412q24 20 68 20h28q90 0 140 -128v-52q0 -40 -260 -536q-86 -196 -132 -220q-41 -24 -80 -24h-16q-116 0 -192 196q-112 203 -280 572z" />
<glyph unicode="w" horiz-adv-x="1800" d="M100 768v52q0 90 128 140h40q119 0 196 -212l116 -220q192 409 236 412q47 20 64 20h40q100 0 172 -188l128 -244q190 412 244 412q24 20 68 20h28q90 0 140 -128v-52q0 -40 -260 -536q-86 -196 -132 -220q-41 -24 -80 -24h-16q-115 0 -188 188q-9 0 -124 248h-4 q-186 -391 -212 -400q-47 -36 -96 -36h-16q-116 0 -192 196q-112 203 -280 572z" />
<glyph unicode="x" d="M100 124v56q0 66 152 200l96 100q-244 239 -244 272l-4 28v40q0 88 124 140h56q66 0 200 -152l100 -96q239 244 272 244l28 4h40q88 0 140 -124v-56q0 -66 -152 -200l-96 -100q244 -239 244 -272l4 -28v-40q0 -88 -124 -140h-56q-66 0 -200 152l-100 96 q-239 -244 -272 -244l-28 -4h-40q-88 0 -140 124z" />
<glyph unicode="y" d="M100 456v364q0 90 128 140h52q90 0 140 -128v-300q0 -171 108 -200l32 -8h40q89 0 136 124v300q0 163 96 196q0 9 48 16h40q90 0 140 -128v-776q0 -214 -216 -380q-129 -76 -240 -76h-44q-90 0 -140 128v52q0 62 80 120q32 19 140 32q84 53 84 88h-4q-52 -20 -120 -20 h-44q-214 0 -380 216q-76 129 -76 240z" />
<glyph unicode="z" d="M100 128v52q0 64 152 196l256 260h-196q-163 0 -196 96q-9 0 -16 48v40q0 90 128 140h692q90 0 140 -128v-44q0 -79 -148 -204l-260 -264h268q90 0 140 -128v-52q0 -90 -128 -140h-692q-90 0 -140 128z" />
<glyph unicode="{" horiz-adv-x="844" d="M100 638v60q172 5 223 71t51 133v468q0 74 77 141.5t185 67.5h108v-50h-90q-61 0 -107 -33.5t-47 -91.5v-500q0 -83 -60.5 -158.5t-142.5 -76.5v-2q82 -1 143 -76t61 -158l-1 -500q1 -58 47 -91.5t107 -33.5h90v-50h-108q-108 0 -184.5 67.5t-77.5 141.5v468 q0 66 -51 132t-223 71z" />
<glyph unicode="|" horiz-adv-x="520" d="M100 128v692q0 90 128 140h52q90 0 140 -128v-692q0 -90 -128 -140h-52q-90 0 -140 128z" />
<glyph unicode="}" horiz-adv-x="844" d="M100 -192h90q61 0 107 33.5t47 91.5l-1 500q0 83 61 158t144 76v2q-83 1 -143.5 76.5t-60.5 158.5v500q-1 58 -47 91.5t-107 33.5h-90v50h108q108 0 185 -67.5t77 -141.5v-468q0 -67 51 -133t223 -71v-60q-172 -5 -223 -71t-51 -132v-468q-1 -74 -77.5 -141.5 t-184.5 -67.5h-108v50z" />
<glyph unicode="~" horiz-adv-x="1029" d="M100 556v156q64 73 123 99t114 26q64 0 181.5 -49.5t172.5 -49.5q52 0 108.5 28t129.5 112v-156q-63 -72 -122 -97.5t-116 -25.5q-60 0 -177.5 48.5t-176.5 48.5q-51 0 -107.5 -28t-129.5 -112z" />
<glyph unicode="&#xab;" horiz-adv-x="1320" d="M100 472v28q0 65 144 188q246 272 304 272h52q140 -35 140 -152v-16q0 -79 -120 -176l-132 -140q243 -229 244 -264l8 -36v-32q0 -98 -132 -144h-40q-81 0 -208 152q-252 238 -252 276q-8 16 -8 44zM580 472v16q0 81 112 168q279 296 312 296l36 8h32q106 0 148 -132v-36 q0 -84 -148 -208l-100 -104l228 -240q20 -41 20 -64v-24q0 -106 -128 -152h-44q-80 0 -216 160q-244 234 -244 268q-8 16 -8 44z" />
<glyph unicode="&#xad;" d="M100 448v52q0 90 128 140h692q90 0 140 -128v-52q0 -90 -128 -140h-692q-90 0 -140 128z" />
<glyph unicode="&#xb6;" horiz-adv-x="1036" d="M100 1086q0 157 107.5 253t285.5 96h443v-70h-127v-1365h-82v1365h-166v-1365h-84v738q-174 8 -275.5 102.5t-101.5 245.5z" />
<glyph unicode="&#xb7;" horiz-adv-x="520" d="M100 468v52q0 90 128 140h52q90 0 140 -128v-52q0 -90 -128 -140h-52q-90 0 -140 128z" />
<glyph unicode="&#xbb;" horiz-adv-x="1320" d="M100 152v24q0 69 144 192l104 112q-240 234 -240 268q-8 16 -8 44v28q0 89 124 140h56q72 0 224 -180q224 -213 224 -236q12 -26 12 -56v-16q0 -79 -120 -176q0 -15 -276 -276q-41 -20 -72 -20h-32q-77 0 -132 104zM580 144v32q0 69 152 200l100 104q-244 234 -244 268 q-8 16 -8 44v16q0 117 140 152h40q69 0 224 -176q220 -219 220 -228l16 -56v-28q0 -83 -132 -192q-258 -272 -292 -272q-16 -8 -44 -8h-32q-72 0 -128 96z" />
<glyph unicode="&#x2000;" horiz-adv-x="789" />
<glyph unicode="&#x2001;" horiz-adv-x="1579" />
<glyph unicode="&#x2002;" horiz-adv-x="789" />
<glyph unicode="&#x2003;" horiz-adv-x="1579" />
<glyph unicode="&#x2004;" horiz-adv-x="526" />
<glyph unicode="&#x2005;" horiz-adv-x="394" />
<glyph unicode="&#x2006;" horiz-adv-x="263" />
<glyph unicode="&#x2007;" horiz-adv-x="263" />
<glyph unicode="&#x2008;" horiz-adv-x="197" />
<glyph unicode="&#x2009;" horiz-adv-x="315" />
<glyph unicode="&#x200a;" horiz-adv-x="87" />
<glyph unicode="&#x2010;" d="M100 448v52q0 90 128 140h692q90 0 140 -128v-52q0 -90 -128 -140h-692q-90 0 -140 128z" />
<glyph unicode="&#x2011;" d="M100 448v52q0 90 128 140h692q90 0 140 -128v-52q0 -90 -128 -140h-692q-90 0 -140 128z" />
<glyph unicode="&#x2012;" d="M100 448v52q0 90 128 140h692q90 0 140 -128v-52q0 -90 -128 -140h-692q-90 0 -140 128z" />
<glyph unicode="&#x2013;" horiz-adv-x="1224" d="M100 448v52q0 90 137 140h738q96 0 149 -128v-52q0 -90 -137 -140h-738q-96 0 -149 128z" />
<glyph unicode="&#x2014;" horiz-adv-x="2248" d="M100 448v52q0 90 273 140h1476q192 0 299 -128v-52q0 -90 -273 -140h-1476q-192 0 -299 128z" />
<glyph unicode="&#x202f;" horiz-adv-x="315" />
<glyph unicode="&#x205f;" horiz-adv-x="394" />
<glyph unicode="&#x25fc;" horiz-adv-x="960" d="M0 0v960h960v-960h-960z" />
</font>
</defs>
</svg>
